<mxfile host="app.diagrams.net" modified="2024-06-25T21:35:01.720Z" agent="Mozilla/5.0 (Windows NT 10.0; Win64; x64) AppleWebKit/537.36 (KHTML, like Gecko) Chrome/126.0.0.0 Safari/537.36" etag="WnT00jRHge5AmHWr3rf9" version="24.6.3" type="google">
  <diagram name="P치gina-1" id="D4xfMR_tDfcY7prQFISW">
    <mxGraphModel grid="1" page="1" gridSize="10" guides="1" tooltips="1" connect="1" arrows="1" fold="1" pageScale="1" pageWidth="1169" pageHeight="827" math="0" shadow="0">
      <root>
        <mxCell id="0" />
        <mxCell id="1" parent="0" />
        <mxCell id="BfA_5P8bwOXLROu7K_P--1" value="&lt;h1 style=&quot;margin-top: 0px;&quot;&gt;&lt;font style=&quot;font-size: 20px;&quot;&gt;Creaci칩n de cuenta Bancaria&lt;/font&gt;&lt;/h1&gt;&lt;p style=&quot;font-size: 11px;&quot;&gt;Diagrama de secuencia para creaci칩n de cuenta bancaria de un cliente.&lt;/p&gt;" style="text;html=1;whiteSpace=wrap;overflow=hidden;rounded=0;fillColor=#eeeeee;strokeColor=#36393d;fontSize=11;" vertex="1" parent="1">
          <mxGeometry x="10" y="10" width="490" height="70" as="geometry" />
        </mxCell>
        <mxCell id="BfA_5P8bwOXLROu7K_P--43" value="" style="shape=umlLifeline;perimeter=lifelinePerimeter;whiteSpace=wrap;html=1;container=1;dropTarget=0;collapsible=0;recursiveResize=0;outlineConnect=0;portConstraint=eastwest;newEdgeStyle={&quot;curved&quot;:0,&quot;rounded&quot;:0};participant=umlActor;" vertex="1" parent="1">
          <mxGeometry x="100" y="130" width="20" height="670" as="geometry" />
        </mxCell>
        <mxCell id="BfA_5P8bwOXLROu7K_P--57" value="" style="html=1;points=[[0,0,0,0,5],[0,1,0,0,-5],[1,0,0,0,5],[1,1,0,0,-5]];perimeter=orthogonalPerimeter;outlineConnect=0;targetShapes=umlLifeline;portConstraint=eastwest;newEdgeStyle={&quot;curved&quot;:0,&quot;rounded&quot;:0};fillColor=#ffcc99;strokeColor=#36393d;" vertex="1" parent="BfA_5P8bwOXLROu7K_P--43">
          <mxGeometry x="5" y="70" width="10" height="30" as="geometry" />
        </mxCell>
        <mxCell id="BfA_5P8bwOXLROu7K_P--64" value="" style="html=1;points=[[0,0,0,0,5],[0,1,0,0,-5],[1,0,0,0,5],[1,1,0,0,-5]];perimeter=orthogonalPerimeter;outlineConnect=0;targetShapes=umlLifeline;portConstraint=eastwest;newEdgeStyle={&quot;curved&quot;:0,&quot;rounded&quot;:0};fillColor=#ffcc99;strokeColor=#36393d;" vertex="1" parent="BfA_5P8bwOXLROu7K_P--43">
          <mxGeometry x="5" y="225" width="10" height="435" as="geometry" />
        </mxCell>
        <mxCell id="BfA_5P8bwOXLROu7K_P--44" value="Sistema&lt;br&gt;Bancario" style="shape=umlLifeline;perimeter=lifelinePerimeter;whiteSpace=wrap;html=1;container=1;dropTarget=0;collapsible=0;recursiveResize=0;outlineConnect=0;portConstraint=eastwest;newEdgeStyle={&quot;curved&quot;:0,&quot;rounded&quot;:0};" vertex="1" parent="1">
          <mxGeometry x="240" y="130" width="100" height="670" as="geometry" />
        </mxCell>
        <mxCell id="BfA_5P8bwOXLROu7K_P--56" value="" style="html=1;points=[[0,0,0,0,5],[0,1,0,0,-5],[1,0,0,0,5],[1,1,0,0,-5]];perimeter=orthogonalPerimeter;outlineConnect=0;targetShapes=umlLifeline;portConstraint=eastwest;newEdgeStyle={&quot;curved&quot;:0,&quot;rounded&quot;:0};fillColor=#cce5ff;strokeColor=#36393d;" vertex="1" parent="BfA_5P8bwOXLROu7K_P--44">
          <mxGeometry x="45" y="80" width="10" height="580" as="geometry" />
        </mxCell>
        <mxCell id="BfA_5P8bwOXLROu7K_P--45" value="Cliente" style="text;align=center;fontStyle=1;verticalAlign=middle;spacingLeft=3;spacingRight=3;strokeColor=none;rotatable=0;points=[[0,0.5],[1,0.5]];portConstraint=eastwest;html=1;" vertex="1" parent="1">
          <mxGeometry x="70" y="104" width="80" height="26" as="geometry" />
        </mxCell>
        <mxCell id="BfA_5P8bwOXLROu7K_P--46" value="" style="shape=umlLifeline;perimeter=lifelinePerimeter;whiteSpace=wrap;html=1;container=1;dropTarget=0;collapsible=0;recursiveResize=0;outlineConnect=0;portConstraint=eastwest;newEdgeStyle={&quot;curved&quot;:0,&quot;rounded&quot;:0};participant=umlControl;" vertex="1" parent="1">
          <mxGeometry x="460" y="130" width="40" height="670" as="geometry" />
        </mxCell>
        <mxCell id="BfA_5P8bwOXLROu7K_P--59" value="" style="html=1;points=[[0,0,0,0,5],[0,1,0,0,-5],[1,0,0,0,5],[1,1,0,0,-5]];perimeter=orthogonalPerimeter;outlineConnect=0;targetShapes=umlLifeline;portConstraint=eastwest;newEdgeStyle={&quot;curved&quot;:0,&quot;rounded&quot;:0};fillColor=#ffff88;strokeColor=#36393d;" vertex="1" parent="BfA_5P8bwOXLROu7K_P--46">
          <mxGeometry x="15" y="90" width="10" height="50" as="geometry" />
        </mxCell>
        <mxCell id="BfA_5P8bwOXLROu7K_P--47" value="Validaciones y Reglas&lt;br&gt;de Negocio" style="text;align=center;fontStyle=1;verticalAlign=middle;spacingLeft=3;spacingRight=3;strokeColor=none;rotatable=0;points=[[0,0.5],[1,0.5]];portConstraint=eastwest;html=1;" vertex="1" parent="1">
          <mxGeometry x="395" y="97" width="170" height="26" as="geometry" />
        </mxCell>
        <mxCell id="BfA_5P8bwOXLROu7K_P--48" value="" style="shape=umlLifeline;perimeter=lifelinePerimeter;whiteSpace=wrap;html=1;container=1;dropTarget=0;collapsible=0;recursiveResize=0;outlineConnect=0;portConstraint=eastwest;newEdgeStyle={&quot;curved&quot;:0,&quot;rounded&quot;:0};participant=umlEntity;" vertex="1" parent="1">
          <mxGeometry x="610" y="130" width="40" height="670" as="geometry" />
        </mxCell>
        <mxCell id="BfA_5P8bwOXLROu7K_P--49" value="Base de Datos" style="text;align=center;fontStyle=1;verticalAlign=middle;spacingLeft=3;spacingRight=3;strokeColor=none;rotatable=0;points=[[0,0.5],[1,0.5]];portConstraint=eastwest;html=1;" vertex="1" parent="1">
          <mxGeometry x="585" y="104" width="90" height="26" as="geometry" />
        </mxCell>
        <mxCell id="BfA_5P8bwOXLROu7K_P--55" value="Inicia solicitud de&lt;br&gt;creaci칩n de cuenta" style="html=1;verticalAlign=bottom;endArrow=block;curved=0;rounded=0;" edge="1" parent="1">
          <mxGeometry width="80" relative="1" as="geometry">
            <mxPoint x="115" y="221" as="sourcePoint" />
            <mxPoint x="285" y="221" as="targetPoint" />
          </mxGeometry>
        </mxCell>
        <mxCell id="BfA_5P8bwOXLROu7K_P--58" value="Valida tipo de cliente&lt;br&gt;(personal / empresarial)" style="html=1;verticalAlign=bottom;endArrow=block;curved=0;rounded=0;" edge="1" parent="1" target="BfA_5P8bwOXLROu7K_P--59">
          <mxGeometry width="80" relative="1" as="geometry">
            <mxPoint x="295" y="230" as="sourcePoint" />
            <mxPoint x="460" y="230" as="targetPoint" />
          </mxGeometry>
        </mxCell>
        <mxCell id="BfA_5P8bwOXLROu7K_P--60" value="Tipo de cliente Validado" style="html=1;verticalAlign=bottom;endArrow=block;curved=0;rounded=0;" edge="1" parent="1" source="BfA_5P8bwOXLROu7K_P--59">
          <mxGeometry width="80" relative="1" as="geometry">
            <mxPoint x="460" y="270" as="sourcePoint" />
            <mxPoint x="295" y="266" as="targetPoint" />
          </mxGeometry>
        </mxCell>
        <mxCell id="BfA_5P8bwOXLROu7K_P--61" value="&lt;b&gt;alt&lt;/b&gt;&lt;br&gt;(alternativa)" style="shape=umlFrame;whiteSpace=wrap;html=1;pointerEvents=0;width=80;height=40;" vertex="1" parent="1">
          <mxGeometry x="70" y="290" width="630" height="510" as="geometry" />
        </mxCell>
        <mxCell id="BfA_5P8bwOXLROu7K_P--62" value="[Cliente Personal]" style="text;align=center;fontStyle=1;verticalAlign=middle;spacingLeft=3;spacingRight=3;strokeColor=none;rotatable=0;points=[[0,0.5],[1,0.5]];portConstraint=eastwest;html=1;" vertex="1" parent="1">
          <mxGeometry x="150" y="291" width="120" height="26" as="geometry" />
        </mxCell>
        <mxCell id="BfA_5P8bwOXLROu7K_P--65" value="Proporciona detalles &lt;br&gt;de cuenta" style="html=1;verticalAlign=bottom;endArrow=block;curved=0;rounded=0;" edge="1" parent="1" target="BfA_5P8bwOXLROu7K_P--56">
          <mxGeometry width="80" relative="1" as="geometry">
            <mxPoint x="115" y="411" as="sourcePoint" />
            <mxPoint x="260" y="410" as="targetPoint" />
          </mxGeometry>
        </mxCell>
        <mxCell id="BfA_5P8bwOXLROu7K_P--66" value="Validar restricciones&lt;br&gt;de negocio" style="html=1;verticalAlign=bottom;endArrow=block;curved=0;rounded=0;" edge="1" parent="1">
          <mxGeometry width="80" relative="1" as="geometry">
            <mxPoint x="295" y="430" as="sourcePoint" />
            <mxPoint x="475" y="430" as="targetPoint" />
          </mxGeometry>
        </mxCell>
        <mxCell id="BfA_5P8bwOXLROu7K_P--67" value="" style="html=1;points=[[0,0,0,0,5],[0,1,0,0,-5],[1,0,0,0,5],[1,1,0,0,-5]];perimeter=orthogonalPerimeter;outlineConnect=0;targetShapes=umlLifeline;portConstraint=eastwest;newEdgeStyle={&quot;curved&quot;:0,&quot;rounded&quot;:0};fillColor=#ffff88;strokeColor=#36393d;" vertex="1" parent="1">
          <mxGeometry x="475" y="420" width="10" height="40" as="geometry" />
        </mxCell>
        <mxCell id="BfA_5P8bwOXLROu7K_P--68" value="Restricciones validadas" style="html=1;verticalAlign=bottom;endArrow=block;curved=0;rounded=0;" edge="1" parent="1">
          <mxGeometry width="80" relative="1" as="geometry">
            <mxPoint x="475" y="454" as="sourcePoint" />
            <mxPoint x="295" y="454" as="targetPoint" />
          </mxGeometry>
        </mxCell>
        <mxCell id="BfA_5P8bwOXLROu7K_P--69" value="" style="html=1;points=[[0,0,0,0,5],[0,1,0,0,-5],[1,0,0,0,5],[1,1,0,0,-5]];perimeter=orthogonalPerimeter;outlineConnect=0;targetShapes=umlLifeline;portConstraint=eastwest;newEdgeStyle={&quot;curved&quot;:0,&quot;rounded&quot;:0};fillColor=#cdeb8b;strokeColor=#36393d;" vertex="1" parent="1">
          <mxGeometry x="625" y="470" width="10" height="50" as="geometry" />
        </mxCell>
        <mxCell id="BfA_5P8bwOXLROu7K_P--70" value="Crear cuenta bancaria" style="html=1;verticalAlign=bottom;endArrow=block;curved=0;rounded=0;entryX=0;entryY=0;entryDx=0;entryDy=5;entryPerimeter=0;" edge="1" parent="1">
          <mxGeometry width="80" relative="1" as="geometry">
            <mxPoint x="295" y="485" as="sourcePoint" />
            <mxPoint x="624.9999999999998" y="485" as="targetPoint" />
          </mxGeometry>
        </mxCell>
        <mxCell id="BfA_5P8bwOXLROu7K_P--71" value="Cuenta bancaria creada" style="html=1;verticalAlign=bottom;endArrow=block;curved=0;rounded=0;" edge="1" parent="1">
          <mxGeometry width="80" relative="1" as="geometry">
            <mxPoint x="624.9999999999998" y="507" as="sourcePoint" />
            <mxPoint x="295" y="507" as="targetPoint" />
          </mxGeometry>
        </mxCell>
        <mxCell id="BfA_5P8bwOXLROu7K_P--72" value="Confirma creaci칩n de cuenta" style="html=1;verticalAlign=bottom;endArrow=block;curved=0;rounded=0;" edge="1" parent="1">
          <mxGeometry width="80" relative="1" as="geometry">
            <mxPoint x="285" y="515" as="sourcePoint" />
            <mxPoint x="115" y="515" as="targetPoint" />
          </mxGeometry>
        </mxCell>
        <mxCell id="BfA_5P8bwOXLROu7K_P--74" value="" style="endArrow=none;html=1;rounded=0;exitX=0.001;exitY=0.599;exitDx=0;exitDy=0;exitPerimeter=0;" edge="1" parent="1">
          <mxGeometry width="50" height="50" relative="1" as="geometry">
            <mxPoint x="70.75000000000023" y="538.5800000000002" as="sourcePoint" />
            <mxPoint x="700" y="541" as="targetPoint" />
          </mxGeometry>
        </mxCell>
        <mxCell id="BfA_5P8bwOXLROu7K_P--75" value="[Cliente Empresarial]" style="text;align=center;fontStyle=1;verticalAlign=middle;spacingLeft=3;spacingRight=3;strokeColor=none;rotatable=0;points=[[0,0.5],[1,0.5]];portConstraint=eastwest;html=1;" vertex="1" parent="1">
          <mxGeometry x="120" y="540" width="140" height="26" as="geometry" />
        </mxCell>
        <mxCell id="BfA_5P8bwOXLROu7K_P--77" value="Selecciona tipo de&lt;br&gt;cuenta y detalle" style="html=1;verticalAlign=bottom;endArrow=block;curved=0;rounded=0;" edge="1" parent="1">
          <mxGeometry width="80" relative="1" as="geometry">
            <mxPoint x="285" y="368" as="sourcePoint" />
            <mxPoint x="115" y="368" as="targetPoint" />
          </mxGeometry>
        </mxCell>
        <mxCell id="BfA_5P8bwOXLROu7K_P--78" value="Selecciona tipo de&lt;br&gt;cuenta corriente &lt;br&gt;y detalle adicionales" style="html=1;verticalAlign=bottom;endArrow=block;curved=0;rounded=0;" edge="1" parent="1">
          <mxGeometry width="80" relative="1" as="geometry">
            <mxPoint x="285" y="610" as="sourcePoint" />
            <mxPoint x="115" y="610" as="targetPoint" />
          </mxGeometry>
        </mxCell>
        <mxCell id="BfA_5P8bwOXLROu7K_P--79" value="Proporciona detalles &lt;br&gt;de la cuenta Empresarial" style="html=1;verticalAlign=bottom;endArrow=block;curved=0;rounded=0;" edge="1" parent="1">
          <mxGeometry width="80" relative="1" as="geometry">
            <mxPoint x="115" y="653.5" as="sourcePoint" />
            <mxPoint x="285" y="653.5" as="targetPoint" />
          </mxGeometry>
        </mxCell>
        <mxCell id="BfA_5P8bwOXLROu7K_P--80" value="Valida restricciones &lt;br&gt;de negocio" style="html=1;verticalAlign=bottom;endArrow=block;curved=0;rounded=0;" edge="1" parent="1">
          <mxGeometry width="80" relative="1" as="geometry">
            <mxPoint x="295" y="668" as="sourcePoint" />
            <mxPoint x="475" y="668" as="targetPoint" />
          </mxGeometry>
        </mxCell>
        <mxCell id="BfA_5P8bwOXLROu7K_P--81" value="Restricciones validadas" style="html=1;verticalAlign=bottom;endArrow=block;curved=0;rounded=0;" edge="1" parent="1">
          <mxGeometry width="80" relative="1" as="geometry">
            <mxPoint x="475" y="691" as="sourcePoint" />
            <mxPoint x="295" y="691" as="targetPoint" />
          </mxGeometry>
        </mxCell>
        <mxCell id="BfA_5P8bwOXLROu7K_P--82" value="" style="html=1;points=[[0,0,0,0,5],[0,1,0,0,-5],[1,0,0,0,5],[1,1,0,0,-5]];perimeter=orthogonalPerimeter;outlineConnect=0;targetShapes=umlLifeline;portConstraint=eastwest;newEdgeStyle={&quot;curved&quot;:0,&quot;rounded&quot;:0};fillColor=#ffff88;strokeColor=#36393d;" vertex="1" parent="1">
          <mxGeometry x="475" y="660" width="10" height="40" as="geometry" />
        </mxCell>
        <mxCell id="BfA_5P8bwOXLROu7K_P--83" value="" style="html=1;points=[[0,0,0,0,5],[0,1,0,0,-5],[1,0,0,0,5],[1,1,0,0,-5]];perimeter=orthogonalPerimeter;outlineConnect=0;targetShapes=umlLifeline;portConstraint=eastwest;newEdgeStyle={&quot;curved&quot;:0,&quot;rounded&quot;:0};fillColor=#cdeb8b;strokeColor=#36393d;" vertex="1" parent="1">
          <mxGeometry x="625" y="710" width="10" height="50" as="geometry" />
        </mxCell>
        <mxCell id="BfA_5P8bwOXLROu7K_P--84" value="Crear cuenta corriente empresarial" style="html=1;verticalAlign=bottom;endArrow=block;curved=0;rounded=0;" edge="1" parent="1">
          <mxGeometry width="80" relative="1" as="geometry">
            <mxPoint x="295" y="721" as="sourcePoint" />
            <mxPoint x="624.9999999999998" y="721" as="targetPoint" />
          </mxGeometry>
        </mxCell>
        <mxCell id="BfA_5P8bwOXLROu7K_P--85" value="Cuenta corriente empresarial bancaria creada" style="html=1;verticalAlign=bottom;endArrow=block;curved=0;rounded=0;" edge="1" parent="1">
          <mxGeometry width="80" relative="1" as="geometry">
            <mxPoint x="624.9999999999998" y="749" as="sourcePoint" />
            <mxPoint x="295" y="749" as="targetPoint" />
          </mxGeometry>
        </mxCell>
        <mxCell id="BfA_5P8bwOXLROu7K_P--86" value="Confirma creaci칩n de &lt;br&gt;cuenta empresarial" style="html=1;verticalAlign=bottom;endArrow=block;curved=0;rounded=0;" edge="1" parent="1">
          <mxGeometry width="80" relative="1" as="geometry">
            <mxPoint x="285" y="774.9999999999998" as="sourcePoint" />
            <mxPoint x="115" y="774.9999999999998" as="targetPoint" />
          </mxGeometry>
        </mxCell>
      </root>
    </mxGraphModel>
  </diagram>
</mxfile>
